<?xml version="1.0" encoding="iso-8859-1"?>
<!-- Generator: Adobe Illustrator 19.0.0, SVG Export Plug-In . SVG Version: 6.00 Build 0)  -->
<svg version="1.1" id="Capa_1" xmlns="http://www.w3.org/2000/svg" xmlns:xlink="http://www.w3.org/1999/xlink" x="0px" y="0px"
	 viewBox="0 0 470 470" style="enable-background:new 0 0 470 470;" xml:space="preserve">
<g>
	<path style="fill:#F53635;" d="M302.5,247.265V455h106.767V247.265H302.5z M386.767,390.196H325c-4.143,0-7.5-3.357-7.5-7.5
		s3.357-7.5,7.5-7.5h61.767c4.143,0,7.5,3.357,7.5,7.5S390.909,390.196,386.767,390.196z M386.767,360.196H325
		c-4.143,0-7.5-3.357-7.5-7.5v-82.932c0-4.143,3.357-7.5,7.5-7.5h61.767c4.143,0,7.5,3.357,7.5,7.5v82.932
		C394.267,356.839,390.909,360.196,386.767,360.196z"/>
	<rect x="332.5" y="277.265" style="fill:#F0F0F0;" width="46.767" height="67.932"/>
	<path style="fill:#F0F0F0;" d="M60.732,375.196H257.5V247.265H60.732V375.196z M116.165,269.765c0-4.143,3.357-7.5,7.5-7.5h70.903
		c4.143,0,7.5,3.357,7.5,7.5v10c0,4.143-3.357,7.5-7.5,7.5s-7.5-3.357-7.5-7.5v-2.5h-20.452v67.932h2.5c4.143,0,7.5,3.357,7.5,7.5
		s-3.357,7.5-7.5,7.5h-20c-4.143,0-7.5-3.357-7.5-7.5s3.357-7.5,7.5-7.5h2.5v-67.932h-20.451v2.5c0,4.143-3.357,7.5-7.5,7.5
		s-7.5-3.357-7.5-7.5V269.765z"/>
	<path style="fill:#FFD691;" d="M439.267,455V178.704c-14.356,11.715-32.668,18.757-52.6,18.757
		c-33.636,0-62.682-20.032-75.834-48.791c-13.152,28.759-42.198,48.791-75.833,48.791s-62.681-20.032-75.833-48.791
		c-13.152,28.759-42.198,48.791-75.834,48.791c-19.931,0-38.244-7.041-52.6-18.757V455H287.5V239.765c0-4.143,3.357-7.5,7.5-7.5
		h121.767c4.143,0,7.5,3.357,7.5,7.5V455H439.267z M272.5,382.696c0,4.143-3.357,7.5-7.5,7.5H53.232c-4.143,0-7.5-3.357-7.5-7.5
		V239.765c0-4.143,3.357-7.5,7.5-7.5H265c4.143,0,7.5,3.357,7.5,7.5V382.696z"/>
	<path style="fill:#C40200;" d="M318.333,84.127c0,4.143-3.357,7.5-7.5,7.5c-0.003,0-0.003,15-0.003,15H432.5
		c4.142,0,7.499,3.356,7.5,7.498h15V15H318.333V84.127z"/>
	<path style="fill:#C40200;" d="M159.167,91.627c-4.143,0-7.5-3.357-7.5-7.5V15H15v99.125h15c0.001-4.141,3.358-7.498,7.5-7.498
		h121.67C159.17,106.627,159.17,91.627,159.167,91.627z"/>
	<path style="fill:#F75E5D;" d="M235,182.461c35.144,0,64.165-26.671,67.913-60.834H167.087
		C170.835,155.79,199.856,182.461,235,182.461z"/>
	<path style="fill:#F53635;" d="M303.333,84.127V15H166.667v69.127c0,4.142-3.356,7.498-7.497,7.5v15h151.66v-15
		C306.689,91.625,303.333,88.269,303.333,84.127z"/>
	<path style="fill:#F53635;" d="M440,114.127c0,4.143-3.357,7.5-7.5,7.5H318.753c3.748,34.163,32.77,60.834,67.914,60.834
		c37.679,0,68.333-30.654,68.333-68.334C455,114.125,440,114.125,440,114.127z"/>
	<path style="fill:#F53635;" d="M15,114.127c0,37.68,30.654,68.334,68.333,68.334c35.144,0,64.166-26.671,67.914-60.834H37.5
		c-4.143,0-7.5-3.357-7.5-7.5C30,114.125,15,114.125,15,114.127z"/>
	<path style="fill:#570100;" d="M123.665,287.265c4.143,0,7.5-3.357,7.5-7.5v-2.5h20.451v67.932h-2.5c-4.143,0-7.5,3.357-7.5,7.5
		s3.357,7.5,7.5,7.5h20c4.143,0,7.5-3.357,7.5-7.5s-3.357-7.5-7.5-7.5h-2.5v-67.932h20.452v2.5c0,4.143,3.357,7.5,7.5,7.5
		s7.5-3.357,7.5-7.5v-10c0-4.143-3.357-7.5-7.5-7.5h-70.903c-4.143,0-7.5,3.357-7.5,7.5v10
		C116.165,283.907,119.522,287.265,123.665,287.265z"/>
	<path style="fill:#570100;" d="M265,232.265H53.232c-4.143,0-7.5,3.357-7.5,7.5v142.932c0,4.143,3.357,7.5,7.5,7.5H265
		c4.143,0,7.5-3.357,7.5-7.5V239.765C272.5,235.622,269.143,232.265,265,232.265z M257.5,375.196H60.732V247.265H257.5V375.196z"/>
	<path style="fill:#570100;" d="M470,7.5c0-4.143-3.357-7.5-7.5-7.5H7.5C3.357,0,0,3.357,0,7.5v106.627
		c0,18.146,5.848,34.943,15.733,48.643V462.5c0,4.143,3.357,7.5,7.5,7.5h423.533c4.143,0,7.5-3.357,7.5-7.5V162.77
		c9.885-13.7,15.733-30.497,15.733-48.643V7.5z M455,114.127c0,37.68-30.654,68.334-68.333,68.334
		c-35.144,0-64.166-26.671-67.914-60.834H432.5c4.143,0,7.5-3.357,7.5-7.5c-0.001-4.144-3.358-7.5-7.5-7.5h-395
		c-4.142,0-7.499,3.356-7.5,7.498c0,4.145,3.357,7.502,7.5,7.502h113.747c-3.748,34.163-32.77,60.834-67.914,60.834
		C45.654,182.461,15,151.807,15,114.127V15h136.667v69.127c0,4.143,3.357,7.5,7.5,7.5c4.144-0.002,7.5-3.358,7.5-7.5V15h136.666
		v69.127c0,4.142,3.356,7.498,7.497,7.5c4.146,0,7.503-3.357,7.503-7.5V15H455V114.127z M302.5,455V247.265h106.767V455H302.5z
		 M416.767,232.265H295c-4.143,0-7.5,3.357-7.5,7.5V455H30.733V178.704c14.356,11.715,32.668,18.757,52.6,18.757
		c33.636,0,62.682-20.032,75.834-48.791c13.152,28.759,42.198,48.791,75.833,48.791s62.681-20.032,75.833-48.791
		c13.152,28.759,42.198,48.791,75.834,48.791c19.931,0,38.244-7.041,52.6-18.757V455h-15V239.765
		C424.267,235.622,420.909,232.265,416.767,232.265z M235,182.461c-35.144,0-64.165-26.671-67.913-60.834h135.826
		C299.165,155.79,270.144,182.461,235,182.461z"/>
	<path style="fill:#570100;" d="M386.767,375.196H325c-4.143,0-7.5,3.357-7.5,7.5s3.357,7.5,7.5,7.5h61.767
		c4.143,0,7.5-3.357,7.5-7.5S390.909,375.196,386.767,375.196z"/>
	<path style="fill:#570100;" d="M386.767,262.265H325c-4.143,0-7.5,3.357-7.5,7.5v82.932c0,4.143,3.357,7.5,7.5,7.5h61.767
		c4.143,0,7.5-3.357,7.5-7.5v-82.932C394.267,265.622,390.909,262.265,386.767,262.265z M379.267,345.196H332.5v-67.932h46.767
		V345.196z"/>
</g>
<g>
</g>
<g>
</g>
<g>
</g>
<g>
</g>
<g>
</g>
<g>
</g>
<g>
</g>
<g>
</g>
<g>
</g>
<g>
</g>
<g>
</g>
<g>
</g>
<g>
</g>
<g>
</g>
<g>
</g>
</svg>
